<?xml version="1.0" encoding="UTF-8" standalone="no"?>
<!-- Created with Inkscape (http://www.inkscape.org/) -->

<svg
   version="1.1"
   id="svg1"
   width="1024"
   height="1024"
   viewBox="0 0 1024 1024"
   sodipodi:docname="sun_mountai4.svg"
   inkscape:version="1.3.2 (091e20e, 2023-11-25, custom)"
   inkscape:export-filename="images\sun_mountai4.png"
   inkscape:export-xdpi="131.25"
   inkscape:export-ydpi="131.25"
   xmlns:inkscape="http://www.inkscape.org/namespaces/inkscape"
   xmlns:sodipodi="http://sodipodi.sourceforge.net/DTD/sodipodi-0.dtd"
   xmlns="http://www.w3.org/2000/svg"
   xmlns:svg="http://www.w3.org/2000/svg">
  <defs
     id="defs1" />
  <sodipodi:namedview
     id="namedview1"
     pagecolor="#505050"
     bordercolor="#eeeeee"
     borderopacity="1"
     inkscape:showpageshadow="0"
     inkscape:pageopacity="0"
     inkscape:pagecheckerboard="0"
     inkscape:deskcolor="#505050"
     inkscape:zoom="0.27578125"
     inkscape:cx="90.651558"
     inkscape:cy="1020.7365"
     inkscape:window-width="1920"
     inkscape:window-height="1051"
     inkscape:window-x="-9"
     inkscape:window-y="-9"
     inkscape:window-maximized="1"
     inkscape:current-layer="g1" />
  <g
     id="g1"
     inkscape:label="graphics"
     transform="scale(1.6)"
     onmouseover="this.style.filter = invert">
    <rect
       style="fill:#000332;fill-opacity:1;fill-rule:evenodd;stroke-width:0;stroke-linejoin:round;paint-order:fill markers stroke"
       id="rect1"
       width="640"
       height="640"
       x="0"
       y="0"
       inkscape:label="background" />
    <path
       style="fill:#ffffff;fill-opacity:1;stroke-width:1.2"
       d="m 398,525.83287 c 14.25556,-3.79965 22.80428,-7.76373 42.88166,-19.88436 38.40616,-23.18566 63.80181,-26.94228 97.47414,-19.77918 18.10553,3.85157 19.78972,2.33811 10.2442,-1.15701 -38.85612,-14.22724 -63.40254,-10.61937 -103.8,15.2567 -49.62206,31.78477 -87.86868,31.5714 -168.94318,-0.94253 C 185.43708,463.06476 167.4094,461.21504 109.87204,482.29569 100.70242,485.65527 93.2,488.84731 93.2,489.38911 c 0,0.54179 2.295,0.16839 5.1,-0.82975 58.41779,-20.78789 87.82242,-19.15673 153.98006,8.5417 51.82572,21.69804 73.38918,28.32327 104.91994,32.23594 9.64621,1.19701 29.58797,-0.5157 40.8,-3.50413 z M 311.64812,491.90656 C 297.74058,486.89658 274.52666,479.4375 257.6,471.54938 217.16781,452.70727 205.97116,448.93333 181.75437,445.98483 168.75777,444.40245 161.03995,444.93288 125,449.88546 c -17.84516,2.45226 -33.691056,3.83558 -48.9,4.26888 -12.375,0.35256 -22.5,1.05693 -22.5,1.56528 0,3.8291 52.49482,2.64349 84,-1.89717 38.09815,-5.49087 48.44266,-4.03863 92.4,12.97174 39.82924,15.41289 67.31924,26.06601 84.6,29.13429 12.99062,2.30656 31.67732,2.43567 57.6,-2.98392 18.9819,-3.96852 40.8779,-10.98135 72.7847,-23.31142 43.0376,-16.63146 41.9202,-16.48722 98.2153,-12.67767 21.2587,1.43861 43.2,0.83005 43.2,-1.19816 0,-0.49935 -7.425,-1.24887 -16.5,-1.6656 -9.075,-0.41675 -24.06,-1.58218 -33.3,-2.58984 -45.47954,-4.95977 -62.61151,-2.15161 -110.69243,18.144 -47.16311,24.09427 -98.73901,27.85171 -114.25945,22.26069 z m 63.5491,-27.75571 c -0.99154,-0.58124 -5.31154,-1.67802 -9.6,-2.43728 -7.28682,-1.29011 -20.73903,-4.80454 -27.59722,-7.20985 -19.50499,-6.84083 -26.69204,-9.77334 -38.98076,-15.90519 -21.36934,-10.66289 -38.38103,-22.28149 -59.32539,-40.51789 -8.13453,-7.0828 -19.93077,-20.49908 -18.76401,-21.32983 2.59209,-1.84561 19.42708,12.41372 27.97362,17.88782 58.5723,38.86787 126.72229,65.25919 166.49654,64.47639 l 6,-0.11808 -6,-1.11116 C 357.31246,447.12852 292.87197,421.43137 309.5,415.6557 c 18.6983,-6.49478 49.78568,-23.79519 75.14952,-41.82141 17.60899,-12.5148 15.92359,-12.22623 21.33954,-3.65364 13.25455,20.97989 34.35877,42.32783 55.38551,56.02512 13.9655,9.09745 33.24295,19.09236 35.32446,18.31492 0.95641,-0.35723 0.63025,-0.90298 -0.89903,-1.50429 -28.42186,-23.69006 -88.871,-68.6931 -85.26557,-71.07018 1.90997,-1.25925 62.90638,43.30206 96.66557,61.07502 21.69884,10.86602 52.49677,22.60992 47.34,18.05175 -0.627,-0.55422 -3.03,-1.71443 -5.34,-2.57825 -19.35965,-7.23943 -49.98414,-25.5573 -69.77806,-41.73733 -12.17092,-9.94882 -12.98161,-10.41771 -23.50789,-13.59648 -12.82375,-3.87258 -28.33115,-14.49265 -48.5142,-33.22444 l -5.60015,-5.19746 -6.39307,3.2396 c -10.2692,5.2038 -24.66511,14.43005 -38.20663,24.48639 -14.7034,10.91917 -30.39059,20.581 -46.72324,28.77711 l -11.64312,5.84279 -8.07916,-4.68703 C 271.15106,401.02519 250.23836,386.21352 217.4,360.44368 c -16.5259,-12.96865 -11.67348,-15.43119 -65.65589,33.31958 -22.28307,20.12353 -44.34607,36.95127 -63.543754,48.46567 -19.05888,11.43114 -18.060504,12.72503 1.767828,2.2911 27.882156,-14.67197 54.593816,-33.87035 89.812736,-64.55083 6.36951,-5.54871 14.29958,-12.38343 17.62238,-15.18827 l 6.04146,-5.09973 3.37762,4.91794 c 32.74893,47.68363 66.4103,72.82074 120.97762,90.34181 20.87507,6.70279 54.15028,13.16861 47.39722,9.2099 z M 344.6,305.70343 C 406.14964,289.20604 437.79169,218.51382 407.99076,164.08064 370.33054,95.292032 276.7658,91.76432 234.5042,157.53961 186.66248,231.99972 258.56475,328.76378 344.6,305.70343 Z"
       id="path1"
       sodipodi:nodetypes="sssssssscsssssssssssssssssssssssssssscsssssscssssssscssscssssssscsssssss"
       inkscape:label="sun mountain" />
  </g>
</svg>
